<?xml version="1.0" standalone="no"?>
<!DOCTYPE svg PUBLIC "-//W3C//DTD SVG 20010904//EN"
 "http://www.w3.org/TR/2001/REC-SVG-20010904/DTD/svg10.dtd">
<svg version="1.0" xmlns="http://www.w3.org/2000/svg"
 width="331.000000pt" height="231.000000pt" viewBox="0 0 331.000000 231.000000"
 preserveAspectRatio="xMidYMid meet">

<g transform="translate(0.000000,231.000000) scale(0.100000,-0.100000)"
fill="#000000" stroke="none">
<path d="M0 1155 l0 -1155 1655 0 1655 0 0 1155 0 1155 -1655 0 -1655 0 0
-1155z m3165 926 c-6 -4 -44 -31 -85 -58 -136 -91 -263 -196 -381 -313 -180
-179 -311 -356 -410 -552 l-49 -98 235 -355 c129 -196 235 -358 235 -361 0 -2
-88 -4 -195 -4 l-195 0 -116 175 c-105 157 -134 194 -134 166 0 -22 -126 -197
-191 -265 l-72 -76 -193 0 c-107 0 -194 3 -194 8 1 15 51 180 76 247 48 128
151 328 232 450 259 389 578 669 997 876 167 82 479 196 440 160z m-2143 -257
c126 -30 245 -119 295 -222 34 -71 43 -183 19 -265 -17 -59 -89 -149 -140
-176 l-26 -14 48 -27 c68 -40 135 -116 161 -183 41 -112 23 -287 -42 -396 -89
-148 -252 -221 -496 -221 -193 0 -310 38 -401 129 -78 78 -130 211 -130 334
l0 27 145 0 c80 0 145 -1 145 -2 0 -2 4 -29 10 -61 19 -115 87 -176 208 -185
86 -6 144 10 192 54 105 95 89 293 -29 353 -45 23 -159 45 -201 39 l-30 -5 0
103 0 102 70 7 c90 9 167 47 195 95 15 26 20 53 20 100 -1 77 -19 117 -72 157
-33 26 -44 28 -122 28 -71 0 -92 -4 -121 -22 -45 -28 -79 -88 -87 -153 l-6
-50 -106 0 c-123 0 -145 9 -161 69 -26 99 51 243 174 323 124 80 315 104 488
62z m879 -250 l91 -136 -90 -86 c-49 -48 -101 -103 -115 -122 -17 -22 -30 -31
-35 -25 -14 15 -332 494 -332 500 0 3 88 5 195 5 l195 0 91 -136z"/>
</g>
</svg>
